<?xml version="1.0" encoding="UTF-8"?>
<svg id="PRINT" xmlns="http://www.w3.org/2000/svg" viewBox="0 0 618.44 159.37">
  <defs>
    <style>
      .cls-1 {
        fill: #ddd;
      }

      .cls-1, .cls-2, .cls-3, .cls-4 {
        stroke-width: 0px;
      }

      .cls-2 {
        fill: #c49a74;
      }

      .cls-3 {
        fill: #fff;
      }

      .cls-4 {
        fill: #c6c6c6;
      }
    </style>
  </defs>
  <g>
    <g id="CUSTOM-group">
      <g>
        <path class="cls-3" d="M120.82,73.01l-21.69-21.69-25.34-25.34h-1.98l-.4,1.03c-1.07,2.71-1.52,5.49-1.32,8.02.23,2.89,1.33,5.39,3.17,7.24l19.78,19.78,2.61-2.61,18.29,20.45c1.82,1.82,4.95,1.93,6.88,0,1.9-1.9,1.9-4.98,0-6.88Z"/>
        <path class="cls-2" d="M83.88,57.47l-15.49,15.49c-1.9,1.9-1.9,4.98,0,6.88,1.8,1.8,4.92,1.96,6.88,0l15.49-15.49-6.88-6.88Z"/>
        <path class="cls-2" d="M119.91,35.19l-8.79,8.79-2.29-2.29,8.79-8.79-2.29-2.29-8.79,8.79-2.29-2.29,8.79-8.79-2.29-2.29-11.46,11.46c-1.4,1.4-2.24,3.26-2.36,5.24-.03.5-.14.99-.33,1.46l7.45,7.45c.47-.19.96-.3,1.46-.33,1.98-.12,3.84-.96,5.24-2.36l11.46-11.46-2.29-2.29Z"/>
      </g>
    </g>
    <path id="CUSTOM" class="cls-2" d="M175.45,70.84h-4.66C165.54,33.04,132.88,4.61,94.6,4.61S23.67,33.04,18.42,70.84h-4.67C19.05,30.45,53.81,0,94.6,0s75.55,30.45,80.85,70.84Z"/>
    <rect id="CUSTOM-2" data-name="CUSTOM" class="cls-2" y="154.76" width="189.2" height="4.61"/>
    <g>
      <path class="cls-4" d="M19.04,131.16v5.59h6.47v-5.59h1.75v13.37h-1.75v-6.27h-6.47v6.27h-1.73v-13.37h1.73Z"/>
      <path class="cls-4" d="M33.32,132.23c.02.6-.42,1.07-1.11,1.07-.61,0-1.05-.48-1.05-1.07s.46-1.09,1.09-1.09,1.07.48,1.07,1.09ZM31.38,144.53v-9.6h1.75v9.6h-1.75Z"/>
      <path class="cls-4" d="M45.29,134.93c-.04.69-.08,1.47-.08,2.64v5.57c0,2.2-.44,3.55-1.37,4.38-.93.87-2.28,1.15-3.49,1.15s-2.42-.28-3.19-.79l.44-1.33c.63.4,1.63.75,2.82.75,1.79,0,3.09-.93,3.09-3.35v-1.07h-.04c-.54.89-1.57,1.61-3.05,1.61-2.38,0-4.09-2.02-4.09-4.68,0-3.25,2.12-5.1,4.32-5.1,1.67,0,2.58.87,3,1.67h.04l.08-1.45h1.53ZM43.48,138.72c0-.3-.02-.56-.1-.79-.32-1.01-1.17-1.84-2.44-1.84-1.67,0-2.86,1.41-2.86,3.63,0,1.88.95,3.45,2.84,3.45,1.07,0,2.04-.67,2.42-1.79.1-.3.14-.63.14-.93v-1.73Z"/>
      <path class="cls-4" d="M49.1,130.45h1.75v5.99h.04c.28-.5.71-.93,1.25-1.23.52-.3,1.13-.5,1.79-.5,1.29,0,3.35.79,3.35,4.11v5.71h-1.75v-5.51c0-1.55-.58-2.86-2.22-2.86-1.13,0-2.02.79-2.34,1.75-.1.24-.12.5-.12.83v5.79h-1.75v-14.08Z"/>
      <path class="cls-4" d="M77.39,146.49c-1.81-.48-3.57-1.01-5.12-1.55-.28-.1-.56-.2-.81-.2-3.17-.12-5.89-2.46-5.89-6.76s2.62-7.04,6.23-7.04,5.99,2.82,5.99,6.76c0,3.43-1.59,5.63-3.81,6.41v.08c1.33.34,2.78.65,3.91.85l-.5,1.45ZM75.96,137.79c0-2.68-1.39-5.44-4.23-5.44s-4.34,2.7-4.32,5.59c-.02,2.84,1.55,5.4,4.24,5.4s4.3-2.5,4.3-5.55Z"/>
      <path class="cls-4" d="M89.06,141.91c0,.99.02,1.86.08,2.62h-1.55l-.1-1.57h-.04c-.46.77-1.47,1.79-3.17,1.79-1.51,0-3.31-.83-3.31-4.21v-5.61h1.75v5.32c0,1.82.56,3.05,2.14,3.05,1.17,0,1.98-.81,2.3-1.59.1-.26.16-.58.16-.89v-5.89h1.75v6.98Z"/>
      <path class="cls-4" d="M98.26,144.53l-.14-1.21h-.06c-.54.75-1.57,1.43-2.94,1.43-1.94,0-2.94-1.37-2.94-2.76,0-2.32,2.06-3.59,5.77-3.57v-.2c0-.79-.22-2.22-2.18-2.22-.89,0-1.83.28-2.5.71l-.4-1.15c.79-.52,1.94-.85,3.15-.85,2.94,0,3.65,2,3.65,3.93v3.59c0,.83.04,1.65.16,2.3h-1.59ZM98,139.63c-1.9-.04-4.07.3-4.07,2.16,0,1.13.75,1.67,1.65,1.67,1.25,0,2.04-.79,2.32-1.61.06-.18.1-.38.1-.56v-1.67Z"/>
      <path class="cls-4" d="M103.5,130.45h1.75v14.08h-1.75v-14.08Z"/>
      <path class="cls-4" d="M111.12,132.23c.02.6-.42,1.07-1.11,1.07-.62,0-1.05-.48-1.05-1.07s.46-1.09,1.09-1.09,1.07.48,1.07,1.09ZM109.18,144.53v-9.6h1.75v9.6h-1.75Z"/>
      <path class="cls-4" d="M116.91,132.17v2.76h2.5v1.33h-2.5v5.18c0,1.19.34,1.86,1.31,1.86.46,0,.79-.06,1.01-.12l.08,1.31c-.34.14-.87.24-1.55.24-.81,0-1.47-.26-1.88-.73-.5-.52-.67-1.37-.67-2.5v-5.24h-1.49v-1.33h1.49v-2.3l1.71-.46Z"/>
      <path class="cls-4" d="M123.18,134.93l2.1,5.67c.22.63.46,1.39.61,1.96h.04c.18-.58.38-1.31.61-2l1.9-5.63h1.84l-2.62,6.84c-1.25,3.29-2.1,4.98-3.29,6.01-.85.75-1.71,1.05-2.14,1.13l-.44-1.47c.44-.14,1.01-.42,1.53-.85.48-.38,1.07-1.05,1.47-1.94.08-.18.14-.32.14-.42s-.04-.24-.12-.46l-3.55-8.85h1.9Z"/>
      <path class="cls-4" d="M148.32,143.93c-.77.28-2.3.73-4.11.73-2.02,0-3.69-.52-5-1.77-1.15-1.11-1.86-2.9-1.86-4.98.02-3.99,2.76-6.9,7.24-6.9,1.55,0,2.76.34,3.33.62l-.42,1.41c-.71-.32-1.61-.58-2.96-.58-3.25,0-5.38,2.02-5.38,5.38s2.04,5.4,5.16,5.4c1.13,0,1.9-.16,2.3-.36v-3.99h-2.72v-1.39h4.4v6.43Z"/>
      <path class="cls-4" d="M151.89,137.92c0-1.13-.02-2.1-.08-3h1.53l.06,1.88h.08c.44-1.29,1.49-2.1,2.66-2.1.2,0,.34.02.5.06v1.65c-.18-.04-.36-.06-.6-.06-1.23,0-2.1.93-2.34,2.24-.04.24-.08.52-.08.81v5.12h-1.73v-6.61Z"/>
      <path class="cls-4" d="M161.4,132.23c.02.6-.42,1.07-1.11,1.07-.61,0-1.05-.48-1.05-1.07s.46-1.09,1.09-1.09,1.07.48,1.07,1.09ZM159.45,144.53v-9.6h1.75v9.6h-1.75Z"/>
      <path class="cls-4" d="M165.09,130.45h1.75v14.08h-1.75v-14.08Z"/>
      <path class="cls-4" d="M170.76,130.45h1.75v14.08h-1.75v-14.08Z"/>
    </g>
    <g>
      <path class="cls-3" d="M6.37,102.73H.67v-2.06h13.88v2.06h-5.73v16.69h-2.45v-16.69Z"/>
      <path class="cls-3" d="M20.45,100.67v11.1c0,4.2,1.86,5.98,4.37,5.98,2.78,0,4.56-1.84,4.56-5.98v-11.1h2.45v10.93c0,5.76-3.03,8.12-7.09,8.12-3.84,0-6.73-2.2-6.73-8.01v-11.04h2.45Z"/>
      <path class="cls-3" d="M44.71,100.67h2.42v16.72h8.01v2.03h-10.43v-18.75Z"/>
      <path class="cls-3" d="M74.17,109.85c0,6.45-3.92,9.88-8.71,9.88s-8.43-3.84-8.43-9.51c0-5.95,3.7-9.85,8.71-9.85s8.43,3.92,8.43,9.49ZM59.62,110.16c0,4.01,2.17,7.59,5.98,7.59s6.01-3.53,6.01-7.79c0-3.73-1.95-7.62-5.98-7.62s-6.01,3.7-6.01,7.82Z"/>
      <path class="cls-3" d="M92.98,118.59c-1.08.39-3.23,1.03-5.76,1.03-2.84,0-5.17-.72-7.01-2.48-1.61-1.56-2.61-4.06-2.61-6.98.03-5.59,3.87-9.68,10.15-9.68,2.17,0,3.87.47,4.67.86l-.58,1.98c-1-.44-2.25-.81-4.14-.81-4.56,0-7.54,2.84-7.54,7.54s2.87,7.57,7.23,7.57c1.59,0,2.67-.22,3.23-.5v-5.59h-3.81v-1.95h6.18v9.01Z"/>
      <path class="cls-3" d="M114.09,109.85c0,6.45-3.92,9.88-8.71,9.88s-8.43-3.84-8.43-9.51c0-5.95,3.7-9.85,8.71-9.85s8.43,3.92,8.43,9.49ZM99.54,110.16c0,4.01,2.17,7.59,5.98,7.59s6.01-3.53,6.01-7.79c0-3.73-1.95-7.62-5.98-7.62s-6.01,3.7-6.01,7.82Z"/>
      <path class="cls-3" d="M128.95,113.53l-1.95,5.9h-2.5l6.37-18.75h2.92l6.4,18.75h-2.59l-2-5.9h-6.65ZM135.1,111.63l-1.84-5.4c-.42-1.22-.7-2.34-.97-3.42h-.06c-.28,1.11-.58,2.25-.95,3.39l-1.84,5.42h5.65Z"/>
      <path class="cls-3" d="M159.38,122.18c-2.53-.67-5.01-1.42-7.18-2.17-.39-.14-.78-.28-1.14-.28-4.45-.17-8.26-3.45-8.26-9.49s3.67-9.88,8.73-9.88,8.4,3.95,8.4,9.49c0,4.81-2.23,7.9-5.34,8.98v.11c1.86.47,3.89.92,5.48,1.2l-.7,2.03ZM157.38,109.97c0-3.76-1.95-7.62-5.92-7.62s-6.09,3.78-6.06,7.84c-.03,3.98,2.17,7.57,5.95,7.57s6.04-3.5,6.04-7.79Z"/>
      <path class="cls-3" d="M166.9,100.67v11.1c0,4.2,1.86,5.98,4.37,5.98,2.78,0,4.56-1.84,4.56-5.98v-11.1h2.45v10.93c0,5.76-3.03,8.12-7.09,8.12-3.84,0-6.73-2.2-6.73-8.01v-11.04h2.45Z"/>
      <path class="cls-3" d="M186.29,100.67v18.75h-2.42v-18.75h2.42Z"/>
    </g>
  </g>
  <g>
    <g>
      <path class="cls-3" d="M232.66,40.78l-1.42,7.91h-9.48l-4.92,27.83h-9.99l4.92-27.83h-9.43l1.42-7.91h28.9Z"/>
      <path class="cls-3" d="M246.09,40.78l-3.6,20.73c-.1.61-.15,1.18-.15,1.72,0,1.35.36,2.4,1.09,3.14.73.74,1.85,1.12,3.37,1.12,1.83,0,3.29-.52,4.41-1.57,1.12-1.05,1.84-2.52,2.18-4.41l3.65-20.73h9.94l-3.65,20.73c-.58,3.38-1.74,6.22-3.5,8.52-1.76,2.3-3.9,4.01-6.44,5.15-2.53,1.13-5.31,1.7-8.31,1.7-3.89,0-7-1.01-9.35-3.04-2.35-2.03-3.52-4.93-3.52-8.72,0-1.22.12-2.42.35-3.6l3.65-20.73h9.88Z"/>
      <path class="cls-3" d="M306.88,43.29c1.96,1.67,2.94,3.9,2.94,6.67,0,.85-.07,1.61-.2,2.28-.41,2.43-1.44,4.57-3.09,6.41-1.66,1.84-3.85,3.15-6.59,3.93l5.58,13.94h-11.05l-4.77-13.18h-1.06l-2.33,13.18h-9.99l6.34-35.74h15.67c3.75,0,6.61.84,8.57,2.51ZM289.84,56.54h4.92c2.64,0,4.19-1.25,4.66-3.75.07-.41.1-.69.1-.86,0-.91-.3-1.62-.89-2.13-.59-.51-1.46-.76-2.61-.76h-4.92l-1.27,7.5Z"/>
      <path class="cls-3" d="M324.72,48.63l-1.01,5.93h11.41l-1.37,7.55h-11.41l-1.17,6.49h12.93l-1.37,7.91h-22.91l6.34-35.74h22.86l-1.37,7.86h-12.93Z"/>
      <path class="cls-3" d="M342.44,74.31c-2.52-1.71-3.78-4.2-3.78-7.48,0-.27.03-.74.1-1.42h10.49c-.1,1.15.13,2.05.71,2.69.57.64,1.45.96,2.64.96.98,0,1.77-.22,2.36-.66.59-.44.89-1.06.89-1.88,0-.95-.43-1.72-1.29-2.33-.86-.61-2.26-1.32-4.18-2.13s-3.52-1.58-4.77-2.31c-1.25-.73-2.33-1.72-3.24-2.99-.91-1.27-1.37-2.85-1.37-4.74,0-2.47.61-4.59,1.82-6.36s2.92-3.13,5.09-4.06c2.18-.93,4.67-1.39,7.48-1.39,2.54,0,4.78.4,6.74,1.19,1.96.79,3.49,1.94,4.59,3.42,1.1,1.49,1.65,3.24,1.65,5.27,0,.54-.02.95-.05,1.22h-10.7c.03-.17.05-.41.05-.71,0-.81-.25-1.44-.76-1.9-.51-.46-1.2-.68-2.08-.68s-1.65.23-2.21.68-.84,1.09-.84,1.9c0,.88.43,1.63,1.29,2.26.86.63,2.21,1.36,4.03,2.21,1.96.91,3.57,1.77,4.84,2.56,1.27.79,2.36,1.85,3.27,3.17.91,1.32,1.37,2.94,1.37,4.87,0,2.13-.57,4.05-1.72,5.75-1.15,1.71-2.79,3.04-4.92,4-2.13.96-4.65,1.44-7.55,1.44-4.12,0-7.44-.85-9.96-2.56Z"/>
      <path class="cls-3" d="M402.89,40.78l-1.42,7.91h-9.48l-4.92,27.83h-9.99l4.92-27.83h-9.43l1.42-7.91h28.9Z"/>
      <path class="cls-3" d="M423.93,70.69h-12.67l-2.94,5.83h-10.44l19.31-35.74h11.46l6.69,35.74h-10.49l-.91-5.83ZM422.76,63.13l-1.77-11.61-5.88,11.61h7.66Z"/>
      <path class="cls-3" d="M454.6,40.78l-3.6,20.73c-.1.61-.15,1.18-.15,1.72,0,1.35.36,2.4,1.09,3.14.73.74,1.85,1.12,3.37,1.12,1.83,0,3.29-.52,4.41-1.57,1.12-1.05,1.84-2.52,2.18-4.41l3.65-20.73h9.94l-3.65,20.73c-.58,3.38-1.74,6.22-3.5,8.52-1.76,2.3-3.9,4.01-6.44,5.15-2.53,1.13-5.31,1.7-8.31,1.7-3.89,0-7-1.01-9.35-3.04-2.35-2.03-3.52-4.93-3.52-8.72,0-1.22.12-2.42.35-3.6l3.65-20.73h9.88Z"/>
      <path class="cls-3" d="M505.19,43.29c1.96,1.67,2.94,3.9,2.94,6.67,0,.85-.07,1.61-.2,2.28-.41,2.43-1.44,4.57-3.09,6.41-1.66,1.84-3.85,3.15-6.59,3.93l5.58,13.94h-11.05l-4.77-13.18h-1.06l-2.33,13.18h-9.99l6.34-35.74h15.67c3.75,0,6.61.84,8.57,2.51ZM488.16,56.54h4.92c2.64,0,4.19-1.25,4.66-3.75.07-.41.1-.69.1-.86,0-.91-.3-1.62-.89-2.13-.59-.51-1.46-.76-2.61-.76h-4.92l-1.27,7.5Z"/>
      <path class="cls-3" d="M531.8,70.69h-12.67l-2.94,5.83h-10.44l19.31-35.74h11.46l6.69,35.74h-10.49l-.91-5.83ZM530.64,63.13l-1.77-11.61-5.88,11.61h7.66Z"/>
      <path class="cls-3" d="M579.56,76.52h-9.99l-9.63-19.97-3.55,19.97h-9.99l6.34-35.74h9.94l9.68,20.23,3.55-20.23h9.94l-6.29,35.74Z"/>
      <path class="cls-3" d="M618.44,40.78l-1.42,7.91h-9.48l-4.92,27.83h-9.99l4.92-27.83h-9.43l1.42-7.91h28.9Z"/>
    </g>
    <g>
      <path class="cls-1" d="M214.89,105.58v5.12h5.45v1.5h-5.45v5.25h6.09v1.54h-8.04v-14.97h8.04v1.54h-6.09Z"/>
      <path class="cls-1" d="M230.32,118.62c-.78-.35-1.39-.84-1.83-1.46s-.67-1.34-.69-2.16h2.08c.07.72.36,1.32.88,1.81s1.25.74,2.21.74,1.64-.24,2.19-.72c.54-.48.81-1.09.81-1.83,0-.57-.16-1.04-.47-1.39-.31-.36-.71-.63-1.18-.81-.47-.19-1.11-.39-1.91-.6-.99-.26-1.78-.51-2.37-.77-.59-.26-1.1-.66-1.52-1.21-.42-.55-.63-1.29-.63-2.22,0-.81.21-1.54.62-2.17.42-.63,1-1.12,1.75-1.46.75-.34,1.61-.51,2.58-.51,1.4,0,2.55.35,3.44,1.05.89.7,1.4,1.63,1.51,2.79h-2.14c-.07-.61-.37-1.14-.89-1.58-.52-.44-1.23-.65-2.11-.65-.81,0-1.48.21-1.99.64-.51.43-.77,1.04-.77,1.82,0,.54.15.99.46,1.33s.69.6,1.14.78,1.08.38,1.9.61c.99.27,1.78.54,2.38.8.6.26,1.11.67,1.54,1.22.43.55.64,1.3.64,2.24,0,.73-.19,1.42-.58,2.06-.39.64-.96,1.17-1.72,1.57s-1.65.6-2.68.6-1.87-.17-2.65-.53Z"/>
      <path class="cls-1" d="M247.06,117.5h5.23v1.5h-7.18v-14.95h1.95v13.45Z"/>
      <path class="cls-1" d="M261.64,118.17c-1.14-.65-2.05-1.56-2.71-2.72-.66-1.17-1-2.48-1-3.94s.33-2.77,1-3.94c.67-1.17,1.57-2.07,2.71-2.72s2.41-.98,3.8-.98,2.67.33,3.82.98c1.14.65,2.04,1.55,2.7,2.71.66,1.16.99,2.47.99,3.95s-.33,2.79-.99,3.95c-.66,1.16-1.56,2.06-2.7,2.71-1.14.65-2.42.98-3.82.98s-2.65-.32-3.8-.98ZM268.26,116.66c.84-.49,1.49-1.17,1.97-2.06.48-.89.72-1.92.72-3.09s-.24-2.21-.72-3.1c-.48-.89-1.14-1.58-1.97-2.06-.84-.48-1.78-.72-2.82-.72s-1.98.24-2.82.72c-.84.48-1.49,1.17-1.97,2.06-.48.89-.72,1.93-.72,3.1s.24,2.2.72,3.09c.48.89,1.14,1.57,1.97,2.06.84.49,1.78.73,2.82.73s1.98-.24,2.82-.73Z"/>
      <path class="cls-1" d="M280.07,107.58c.67-1.17,1.57-2.07,2.71-2.72s2.41-.98,3.8-.98c1.59,0,2.99.39,4.21,1.18s2.11,1.89,2.67,3.32h-2.34c-.41-.87-1.01-1.55-1.8-2.03s-1.7-.72-2.75-.72-1.98.24-2.82.72c-.84.48-1.49,1.17-1.97,2.06-.48.89-.72,1.93-.72,3.1s.24,2.2.72,3.09c.48.89,1.14,1.57,1.97,2.05.84.48,1.78.72,2.82.72,1.47,0,2.68-.44,3.62-1.32.94-.88,1.49-2.07,1.63-3.57h-5.96v-1.54h8.04v1.5c-.11,1.23-.5,2.36-1.16,3.38-.66,1.02-1.52,1.83-2.59,2.42s-2.27.89-3.58.89c-1.39,0-2.65-.33-3.8-.98-1.14-.65-2.05-1.55-2.71-2.71-.66-1.16-1-2.47-1-3.92s.33-2.77,1-3.94Z"/>
      <path class="cls-1" d="M309.61,115.68h-6.52l-1.2,3.32h-2.06l5.4-14.86h2.25l5.38,14.86h-2.06l-1.2-3.32ZM309.08,114.15l-2.72-7.61-2.72,7.61h5.45Z"/>
      <path class="cls-1" d="M331.27,119h-1.95l-7.85-11.9v11.9h-1.95v-14.97h1.95l7.85,11.88v-11.88h1.95v14.97Z"/>
      <path class="cls-1" d="M358.45,104.96c1.19.61,2.11,1.48,2.75,2.61.64,1.13.95,2.46.95,3.99s-.32,2.86-.95,3.98c-.64,1.12-1.55,1.98-2.75,2.57-1.19.59-2.61.89-4.24.89h-4.65v-14.95h4.65c1.63,0,3.04.3,4.24.91ZM358.63,115.92c1.02-1.05,1.53-2.51,1.53-4.36s-.51-3.31-1.53-4.35c-1.02-1.04-2.49-1.57-4.41-1.57h-2.7v11.86h2.7c1.92,0,3.38-.53,4.41-1.58Z"/>
      <path class="cls-1" d="M370.97,105.58v5.12h5.45v1.5h-5.45v5.25h6.09v1.54h-8.04v-14.97h8.04v1.54h-6.09Z"/>
      <path class="cls-1" d="M404.18,104.05v1.52h-4.07v13.42h-1.95v-13.42h-4.1v-1.52h10.12Z"/>
      <path class="cls-1" d="M412.78,104.05v9.44c0,1.32.33,2.3.99,2.95.66.65,1.56.98,2.7.98s2.04-.33,2.69-.98.98-1.63.98-2.95v-9.44h1.95v9.44c0,1.24-.25,2.29-.75,3.14-.5.85-1.18,1.48-2.03,1.9s-1.8.62-2.86.62-2.01-.21-2.86-.62-1.52-1.05-2.02-1.9c-.49-.85-.74-1.9-.74-3.14v-9.44h1.95Z"/>
      <path class="cls-1" d="M448.19,119l-3.56-6.11h-2.36v6.11h-1.95v-14.95h4.83c1.13,0,2.08.19,2.86.58.78.39,1.36.91,1.75,1.57s.58,1.41.58,2.25c0,1.03-.3,1.94-.89,2.72-.59.79-1.48,1.31-2.67,1.57l3.75,6.26h-2.34ZM442.27,111.32h2.87c1.06,0,1.85-.26,2.38-.78.53-.52.79-1.22.79-2.09s-.26-1.6-.77-2.1-1.32-.75-2.4-.75h-2.87v5.73Z"/>
      <path class="cls-1" d="M459.6,105.58v5.12h5.45v1.5h-5.45v5.25h6.09v1.54h-8.04v-14.97h8.04v1.54h-6.09Z"/>
      <path class="cls-1" d="M475.02,118.62c-.78-.35-1.39-.84-1.83-1.46s-.67-1.34-.69-2.16h2.08c.07.72.36,1.32.88,1.81s1.25.74,2.21.74,1.64-.24,2.19-.72c.54-.48.81-1.09.81-1.83,0-.57-.16-1.04-.47-1.39-.31-.36-.71-.63-1.18-.81-.47-.19-1.11-.39-1.91-.6-.99-.26-1.78-.51-2.37-.77-.59-.26-1.1-.66-1.52-1.21-.42-.55-.63-1.29-.63-2.22,0-.81.21-1.54.62-2.17.42-.63,1-1.12,1.75-1.46.75-.34,1.61-.51,2.58-.51,1.4,0,2.55.35,3.44,1.05.89.7,1.4,1.63,1.51,2.79h-2.14c-.07-.61-.37-1.14-.89-1.58-.52-.44-1.23-.65-2.11-.65-.81,0-1.48.21-1.99.64-.51.43-.77,1.04-.77,1.82,0,.54.15.99.46,1.33s.69.6,1.14.78,1.08.38,1.9.61c.99.27,1.78.54,2.38.8.6.26,1.11.67,1.54,1.22.43.55.64,1.3.64,2.24,0,.73-.19,1.42-.58,2.06-.39.64-.96,1.17-1.72,1.57s-1.65.6-2.68.6-1.87-.17-2.65-.53Z"/>
      <path class="cls-1" d="M499.01,104.05v1.52h-4.07v13.42h-1.95v-13.42h-4.1v-1.52h10.12Z"/>
      <path class="cls-1" d="M514.54,115.68h-6.52l-1.2,3.32h-2.06l5.4-14.86h2.25l5.38,14.86h-2.06l-1.2-3.32ZM514,114.15l-2.72-7.61-2.72,7.61h5.45Z"/>
      <path class="cls-1" d="M526.35,104.05v9.44c0,1.32.33,2.3.99,2.95.66.65,1.56.98,2.7.98s2.04-.33,2.69-.98.98-1.63.98-2.95v-9.44h1.95v9.44c0,1.24-.25,2.29-.75,3.14-.5.85-1.18,1.48-2.03,1.9s-1.8.62-2.86.62-2.01-.21-2.86-.62-1.52-1.05-2.02-1.9c-.49-.85-.74-1.9-.74-3.14v-9.44h1.95Z"/>
      <path class="cls-1" d="M551.08,119l-3.56-6.11h-2.36v6.11h-1.95v-14.95h4.83c1.13,0,2.08.19,2.86.58.78.39,1.36.91,1.75,1.57s.58,1.41.58,2.25c0,1.03-.3,1.94-.89,2.72-.59.79-1.48,1.31-2.67,1.57l3.75,6.26h-2.34ZM545.16,111.32h2.87c1.06,0,1.85-.26,2.38-.78.53-.52.79-1.22.79-2.09s-.26-1.6-.77-2.1-1.32-.75-2.4-.75h-2.87v5.73Z"/>
      <path class="cls-1" d="M569.37,115.68h-6.52l-1.2,3.32h-2.06l5.4-14.86h2.25l5.38,14.86h-2.06l-1.2-3.32ZM568.83,114.15l-2.72-7.61-2.72,7.61h5.45Z"/>
      <path class="cls-1" d="M591.03,119h-1.95l-7.85-11.9v11.9h-1.95v-14.97h1.95l7.85,11.88v-11.88h1.95v14.97Z"/>
      <path class="cls-1" d="M607.84,104.05v1.52h-4.07v13.42h-1.95v-13.42h-4.1v-1.52h10.12Z"/>
    </g>
  </g>
</svg>